<?xml version="1.0"?>
<svg xmlns="http://www.w3.org/2000/svg" xmlns:xlink="http://www.w3.org/1999/xlink" version="1.1" id="Layer_1" x="0px" y="0px" viewBox="0 0 496.2 496.2" style="enable-background:new 0 0 496.2 496.2;" xml:space="preserve" width="512px" height="512px" class=""><g><path style="fill:#272727" d="M496.2,248.1C496.2,111.1,385.1,0,248.1,0S0,111.1,0,248.1s111.1,248.1,248.1,248.1  S496.2,385.1,496.2,248.1z" data-original="#32BEA6" class="active-path" data-old_color="#2D2D2D"/><path style="fill:#525252" d="M392.2,337.3c0,16.8-3.9,16.5-21.5,16.5H133.5c-17.6,0-31.8-13.6-31.8-30.4V180.8  c0-16.8,14.3-30.4,31.8-30.4H369c17.6,0,23.2,6,23.2,22.8V337.3z" data-original="#525252" class="" data-old_color="#E9E6E6"/><path style="fill:#444545" d="M386,332.3c0,16.8-4.8,16.5-21.7,16.5h-226c-16.8,0-30.5-13.6-30.5-30.4V188.6  c0-16.8,13.6-30.4,30.5-30.4h228c16.8,0,19.7,7.7,19.7,24.5V332.3z" data-original="#444545" class="" data-old_color="#D1D4D4"/><path style="fill:#EFB533" d="M299.8,210.3c28.5-28.5,28.5-74.8,0-103.3s-74.8-28.5-103.3,0s-28.5,74.8,0,103.3  S271.2,238.8,299.8,210.3z" data-original="#EFB533" class=""/><path style="fill:#E5AA17" d="M299.8,210.3c28.5-28.5,28.5-74.8,0-103.3L196.4,210.3C225,238.8,271.2,238.8,299.8,210.3z" data-original="#E5AA17" class=""/><path style="fill:#F4DE7F" d="M292.9,203.4c24.7-24.7,24.7-64.8,0-89.6c-24.7-24.7-64.8-24.7-89.6,0c-24.7,24.7-24.7,64.8,0,89.6  C228,228.1,268.2,228.1,292.9,203.4z" data-original="#F4DE7F" class=""/><path style="fill:#F2D55A" d="M292.9,203.4c24.7-24.7,24.7-64.8,0-89.6l-89.6,89.6C228,228.1,268.2,228.1,292.9,203.4z" data-original="#F2D55A" class=""/><path style="fill:#E5AA17" d="M272.4,136.7c0,4.7-5.3,8-5.6,7.6c-3.9-4.6-10.7-8-17.5-8c-6.9,0-11.2,3.1-11.2,7.8  c0,5.4,5.7,6.8,13.7,8.6c9.5,2.1,22,5.9,22,19.5c0,10.5-7.2,17.7-19.4,19.6v4c0,4.8-1.9,7-6,7h-0.5c-4.3,0-5.9-2.2-5.9-7V192  c-12.5-1.3-19.7-7-19.7-12.8c0-4.5,5-7.7,5.4-7.2c3.9,4.8,11.6,8.7,19.7,8.7c7.3,0,11.6-3.1,11.6-7.8c0-5.7-6.4-7.2-14-9  c-9.1-2-21.1-5.6-21.1-19.3c0-9.9,7-17.1,18.2-19.1v-3.8c0-4.8,1.8-7,5.9-7h0.6c4.2,0,5.9,2.2,5.9,7v3.5  C266.1,126.3,272.4,131.4,272.4,136.7z" data-original="#E5AA17" class=""/><g>
	<path style="fill:#F2D55A" d="M259,172.7c0-5.7-6.4-7.2-14-9c-0.6-0.1-1.1-0.2-1.7-0.4l-11.9,11.9c4.2,3.1,10,5.3,16,5.3   C254.8,180.5,259,177.4,259,172.7z" data-original="#F2D55A" class=""/>
	<path style="fill:#F2D55A" d="M292.9,113.8l-20.8,20.8c0.2,0.7,0.3,1.4,0.3,2.1c0,4.7-5.3,8-5.6,7.6c-0.7-0.8-1.4-1.5-2.2-2.2   l-11,11c9.2,2.2,20.2,6.3,20.2,19c0,10.5-7.2,17.7-19.4,19.6v4c0,4.8-1.9,7-6,7h-0.5c-4.3,0-5.9-2.2-5.9-7v-3.8   c-9.5-1-15.9-4.6-18.5-8.8l-20.3,20.3c24.7,24.7,64.8,24.7,89.6,0C317.6,178.6,317.6,138.5,292.9,113.8z" data-original="#F2D55A" class=""/>
</g><g>
	<path style="fill:#EFB533" d="M227.8,171.8c-0.4-0.4-5.4,2.8-5.4,7.2c0,1.4,0.4,2.8,1.2,4.1l7.9-7.9   C230,174.2,228.8,173,227.8,171.8z" data-original="#EFB533" class=""/>
	<path style="fill:#EFB533" d="M251.8,152.6c-8-1.8-13.7-3.2-13.7-8.6c0-4.7,4.2-7.8,11.2-7.8c5.7,0,11.3,2.4,15.3,5.8l7.4-7.4   c-1.4-4.5-7.5-8.6-17.5-9.6v-3.5c0-4.9-1.7-7-5.9-7H248c-4.1,0-5.9,2.3-5.9,7v3.8c-11.2,2.1-18.2,9.2-18.2,19.1   c0,12.8,10.6,16.8,19.4,18.9l10.3-10.3C253,152.9,252.4,152.8,251.8,152.6z" data-original="#EFB533" class=""/>
</g><path style="fill:#E5AA17" d="M266.8,144.3c0.3,0.4,5.6-2.9,5.6-7.6c0-0.7-0.1-1.4-0.3-2.1l-7.4,7.4  C265.4,142.8,266.1,143.5,266.8,144.3z" data-original="#E5AA17" class=""/><path style="fill:#616161" d="M378.9,351.3c0,16.8-6.6,21.5-23.4,21.5H118.7c-16.8,0-17.1-1.6-17.1-18.4v-172c0,0,0.2-4.1,0.4-6.7  c0.4-5.8,4.7-11.5,4.7-11.5s2.5,10.6,9.7,13.5c11.2,4.6,20,4.2,20,4.2h219.1c16.8,0,23.4,2.2,23.4,19V351.3z" data-original="#616161" class="" data-old_color="#ACA7A7"/><g>
	<path style="fill:#717171" d="M121.7,193.5L121.7,193.5h-15.6c-2.2,0-3.9-1.8-3.9-3.9c0-2.2,1.7-3.9,3.9-3.9l0,0h15.6   c2.2,0,3.9,1.8,3.9,3.9C125.6,191.8,123.9,193.5,121.7,193.5z" data-original="#717171" class=""/>
	<path style="fill:#717171" d="M349.8,368.1h-7.7c-2.2,0-3.9-1.7-3.9-3.9s1.8-3.9,3.9-3.9h7.7c13,0,15.2-1.1,16.3-5.3   c0.6-2.1,2.7-3.3,4.8-2.8c2.1,0.6,3.3,2.7,2.8,4.8C370.7,368.1,360.5,368.1,349.8,368.1z M310.6,368.1h-31.5   c-2.2,0-3.9-1.7-3.9-3.9s1.7-3.9,3.9-3.9h31.5c2.2,0,3.9,1.7,3.9,3.9S312.8,368.1,310.6,368.1z M247.7,368.1h-31.5   c-2.2,0-3.9-1.7-3.9-3.9s1.7-3.9,3.9-3.9h31.5c2.2,0,3.9,1.7,3.9,3.9S249.9,368.1,247.7,368.1z M184.8,368.1h-31.5   c-2.2,0-3.9-1.7-3.9-3.9s1.8-3.9,3.9-3.9h31.5c2.2,0,3.9,1.7,3.9,3.9S186.9,368.1,184.8,368.1z M370.7,328.5   c-2.2,0-3.9-1.7-3.9-3.9v-31.5c0-2.2,1.7-3.9,3.9-3.9s3.9,1.7,3.9,3.9v31.5C374.6,326.8,372.9,328.5,370.7,328.5z M370.7,265.6   c-2.2,0-3.9-1.7-3.9-3.9v-31.5c0-2.2,1.7-3.9,3.9-3.9s3.9,1.8,3.9,3.9v31.5C374.6,263.8,372.9,265.6,370.7,265.6z M369.5,202.8   c-1.7,0-3.2-1.1-3.7-2.7c-1.1-3.5-3-6.4-15.1-6.4H342c-2.2,0-3.9-1.8-3.9-3.9c0-2.2,1.8-3.9,3.9-3.9l0,0h8.7   c9.8,0,19.3,1.4,22.6,11.9c0.6,2.1-0.5,4.3-2.5,4.9C370.3,202.7,369.9,202.8,369.5,202.8z M310.5,193.6L310.5,193.6H279   c-2.2,0-3.9-1.8-3.9-3.9c0-2.2,1.8-3.9,3.9-3.9l0,0h31.5c2.2,0,3.9,1.7,3.9,3.9S312.6,193.6,310.5,193.6z M247.6,193.6L247.6,193.6   h-31.5c-2.2,0-3.9-1.7-3.9-3.9s1.7-3.9,3.9-3.9l0,0h31.5c2.2,0,3.9,1.8,3.9,3.9S249.7,193.6,247.6,193.6z M184.6,193.6L184.6,193.6   h-31.5c-2.2,0-3.9-1.8-3.9-3.9s1.7-3.9,3.9-3.9l0,0h31.5c2.2,0,3.9,1.8,3.9,3.9S186.8,193.6,184.6,193.6z" data-original="#717171" class=""/>
	<path style="fill:#717171" d="M121.7,368.1h-15.6c-2.2,0-3.9-1.7-3.9-3.9s1.7-3.9,3.9-3.9h15.6c2.2,0,3.9,1.7,3.9,3.9   S123.9,368.1,121.7,368.1z" data-original="#717171" class=""/>
</g><path style="fill:#616161" d="M363.9,343.8c0,14.2-5,15.3-19.6,15.3H102.1V194.3l243.1,0.1c14.6,0,18.8,4,18.8,18.3v131.1H363.9z" data-original="#616161" class="" data-old_color="#ACA7A7"/><path style="fill:#727172" d="M392.8,283.9h-76c-4.9,0-14.1-8.8-14.1-26.6s9.2-26.1,14.1-26.1h76  C395.3,231.3,395,283.9,392.8,283.9z" data-original="#727172" class=""/><path style="fill:#575656" d="M392.8,288.2h-76c-4.9,0-14.1-8.8-14.1-26.6s9.2-26.1,14.1-26.1h76  C395.3,235.5,395,288.2,392.8,288.2z" data-original="#575656" class="" data-old_color="#B7B6B6"/><path style="fill:#D6CB78" d="M336.5,262c0,6.4-4.4,11.6-9.9,11.6s-9.9-5.2-9.9-11.6s4.4-11.6,9.9-11.6S336.5,255.6,336.5,262z" data-original="#D6CB78"/><path style="fill:#F2F0E8" d="M334.6,262c0,5.2-3.6,9.4-8,9.4s-8-4.2-8-9.4s3.6-9.4,8-9.4S334.6,256.8,334.6,262z" data-original="#ECE17E" class="" data-old_color="#EEEBD9"/></g> </svg>
